<mxfile host="app.diagrams.net" modified="2021-08-02T13:06:58.905Z" agent="5.0 (X11)" etag="QtwCeVae2srUgsI4HA4T" version="14.9.3" type="github">
  <diagram name="Page-1" id="55a83fd1-7818-8e21-69c5-c3457e3827bb">
    <mxGraphModel dx="1422" dy="885" grid="1" gridSize="10" guides="1" tooltips="1" connect="1" arrows="1" fold="1" page="1" pageScale="1" pageWidth="1169" pageHeight="827" background="none" math="0" shadow="1">
      <root>
        <mxCell id="0" />
        <mxCell id="1" parent="0" />
        <mxCell id="eqkKP_CpMsjsfQWl-JKb-1" value="" style="image;html=1;image=img/lib/clip_art/computers/Database_128x128.png" vertex="1" parent="1">
          <mxGeometry x="240" y="300" width="140" height="100" as="geometry" />
        </mxCell>
        <mxCell id="eqkKP_CpMsjsfQWl-JKb-6" value="" style="image;html=1;image=img/lib/clip_art/computers/Mainframe_128x128.png" vertex="1" parent="1">
          <mxGeometry x="100" y="150" width="220" height="140" as="geometry" />
        </mxCell>
        <mxCell id="eqkKP_CpMsjsfQWl-JKb-7" value="" style="image;html=1;image=img/lib/clip_art/computers/Database_128x128.png" vertex="1" parent="1">
          <mxGeometry x="860" y="280" width="140" height="100" as="geometry" />
        </mxCell>
        <mxCell id="eqkKP_CpMsjsfQWl-JKb-8" value="" style="image;html=1;image=img/lib/clip_art/computers/Mainframe_128x128.png" vertex="1" parent="1">
          <mxGeometry x="925" y="150" width="220" height="140" as="geometry" />
        </mxCell>
        <mxCell id="eqkKP_CpMsjsfQWl-JKb-9" value="&lt;div&gt;&lt;i&gt;&lt;font style=&quot;font-size: 28px&quot;&gt;&lt;b&gt;POC19 (db_name)&lt;br&gt;&lt;/b&gt;&lt;/font&gt;&lt;/i&gt;&lt;/div&gt;&lt;div&gt;&lt;i&gt;&lt;font style=&quot;font-size: 28px&quot;&gt;&lt;b&gt;Dguard-Config: POC_DG&lt;br&gt;&lt;/b&gt;&lt;/font&gt;&lt;/i&gt;&lt;/div&gt;" style="text;html=1;resizable=0;autosize=1;align=center;verticalAlign=middle;points=[];fillColor=none;strokeColor=none;rounded=0;" vertex="1" parent="1">
          <mxGeometry x="440" y="30" width="350" height="50" as="geometry" />
        </mxCell>
        <mxCell id="eqkKP_CpMsjsfQWl-JKb-10" value="&lt;i&gt;&lt;font style=&quot;font-size: 28px&quot;&gt;&lt;b&gt;POC19 (db_unique_name,SID)&lt;/b&gt;&lt;/font&gt;&lt;/i&gt;" style="text;html=1;resizable=0;autosize=1;align=center;verticalAlign=middle;points=[];fillColor=none;strokeColor=none;rounded=0;" vertex="1" parent="1">
          <mxGeometry x="110" y="414" width="420" height="30" as="geometry" />
        </mxCell>
        <mxCell id="eqkKP_CpMsjsfQWl-JKb-13" value="&lt;div&gt;&lt;i&gt;&lt;font style=&quot;font-size: 28px&quot;&gt;&lt;b&gt;Prim Server/DB&lt;br&gt;&lt;/b&gt;&lt;/font&gt;&lt;/i&gt;&lt;/div&gt;&lt;div&gt;&lt;i&gt;&lt;font style=&quot;font-size: 28px&quot;&gt;&lt;b&gt;orapoc01&lt;/b&gt;&lt;/font&gt;&lt;/i&gt;&lt;/div&gt;" style="text;html=1;resizable=0;autosize=1;align=center;verticalAlign=middle;points=[];fillColor=none;strokeColor=none;rounded=0;" vertex="1" parent="1">
          <mxGeometry x="90" y="90" width="220" height="50" as="geometry" />
        </mxCell>
        <mxCell id="eqkKP_CpMsjsfQWl-JKb-14" value="&lt;div&gt;&lt;i&gt;&lt;font style=&quot;font-size: 28px&quot;&gt;&lt;b&gt;Stby Server/DB&lt;br&gt;&lt;/b&gt;&lt;/font&gt;&lt;/i&gt;&lt;/div&gt;&lt;div&gt;&lt;i&gt;&lt;font style=&quot;font-size: 28px&quot;&gt;&lt;b&gt;orapoc02&lt;/b&gt;&lt;/font&gt;&lt;/i&gt;&lt;/div&gt;" style="text;html=1;resizable=0;autosize=1;align=center;verticalAlign=middle;points=[];fillColor=none;strokeColor=none;rounded=0;" vertex="1" parent="1">
          <mxGeometry x="930" y="90" width="220" height="50" as="geometry" />
        </mxCell>
        <mxCell id="eqkKP_CpMsjsfQWl-JKb-15" value="&lt;i&gt;&lt;font style=&quot;font-size: 28px&quot;&gt;&lt;b&gt;DPOC19 (db_unique_name,SID)&lt;/b&gt;&lt;/font&gt;&lt;/i&gt;" style="text;html=1;resizable=0;autosize=1;align=center;verticalAlign=middle;points=[];fillColor=none;strokeColor=none;rounded=0;" vertex="1" parent="1">
          <mxGeometry x="710" y="414" width="440" height="30" as="geometry" />
        </mxCell>
        <mxCell id="eqkKP_CpMsjsfQWl-JKb-16" value="&lt;div style=&quot;font-size: 14px&quot;&gt;&lt;h1&gt;&lt;font style=&quot;font-size: 14px&quot; face=&quot;Courier New&quot;&gt;&lt;span style=&quot;font-size: 14px&quot;&gt;&lt;/span&gt;&lt;/font&gt;&lt;font style=&quot;font-size: 23px&quot;&gt;&lt;span&gt;&lt;font face=&quot;Courier New&quot;&gt;Software&lt;/font&gt; &lt;font style=&quot;font-size: 23px&quot; face=&quot;Courier New&quot;&gt;specs&lt;/font&gt;&lt;br&gt;&lt;/span&gt;&lt;/font&gt;&lt;/h1&gt;&lt;/div&gt;&lt;div style=&quot;font-size: 14px&quot;&gt;&lt;font style=&quot;font-size: 14px&quot;&gt;&lt;span style=&quot;font-size: 14px&quot;&gt;&lt;br&gt;&lt;/span&gt;&lt;/font&gt;&lt;/div&gt;&lt;div style=&quot;font-size: 14px&quot;&gt;&lt;font style=&quot;font-size: 14px&quot;&gt;&lt;span style=&quot;font-size: 14px&quot;&gt;Oracle 19.12 EE&lt;br&gt;&lt;/span&gt;&lt;/font&gt;&lt;/div&gt;&lt;div style=&quot;font-size: 14px&quot;&gt;&lt;font style=&quot;font-size: 14px&quot;&gt;&lt;span style=&quot;font-size: 14px&quot;&gt;Ansible 2.11&lt;/span&gt;&lt;/font&gt;&lt;/div&gt;&lt;div style=&quot;font-size: 14px&quot;&gt;&lt;font style=&quot;font-size: 14px&quot;&gt;&lt;span style=&quot;font-size: 14px&quot;&gt;Python 3.9&lt;/span&gt;&lt;/font&gt;&lt;/div&gt;&lt;div style=&quot;font-size: 14px&quot;&gt;&lt;font style=&quot;font-size: 14px&quot;&gt;&lt;span style=&quot;font-size: 14px&quot;&gt;&lt;br style=&quot;font-size: 14px&quot;&gt;&lt;/span&gt;&lt;/font&gt;&lt;/div&gt;&lt;div style=&quot;font-size: 14px&quot;&gt;&lt;font style=&quot;font-size: 14px&quot;&gt;&lt;span style=&quot;font-size: 14px&quot;&gt;&lt;br style=&quot;font-size: 14px&quot;&gt;&lt;/span&gt;&lt;/font&gt;&lt;/div&gt;" style="text;html=1;resizable=0;autosize=1;align=center;verticalAlign=middle;points=[];rounded=0;fontSize=14;fontStyle=1;labelBorderColor=#000000;spacingTop=0;spacingLeft=4;spacingBottom=4;spacingRight=4;fillColor=#fff2cc;strokeWidth=0;" vertex="1" parent="1">
          <mxGeometry x="935" y="640" width="210" height="170" as="geometry" />
        </mxCell>
        <mxCell id="eqkKP_CpMsjsfQWl-JKb-18" value="&lt;div style=&quot;font-size: 14px&quot;&gt;&lt;font style=&quot;font-size: 14px&quot;&gt;&lt;span style=&quot;font-size: 14px&quot;&gt;&lt;/span&gt;&lt;/font&gt;&lt;h1&gt;&lt;font style=&quot;font-size: 23px&quot;&gt;&lt;span&gt;&lt;font style=&quot;font-size: 23px&quot; face=&quot;Courier New&quot;&gt;Hardware&lt;/font&gt; &lt;font style=&quot;font-size: 23px&quot; face=&quot;Courier New&quot;&gt;specs&lt;/font&gt;&lt;br&gt;&lt;/span&gt;&lt;/font&gt;&lt;/h1&gt;&lt;/div&gt;&lt;div style=&quot;font-size: 14px&quot;&gt;&lt;font style=&quot;font-size: 14px&quot;&gt;&lt;span style=&quot;font-size: 14px&quot;&gt;Type : KVM/libvirt&lt;br style=&quot;font-size: 14px&quot;&gt;&lt;/span&gt;&lt;/font&gt;&lt;/div&gt;&lt;div style=&quot;font-size: 14px&quot;&gt;&lt;font style=&quot;font-size: 14px&quot;&gt;&lt;span style=&quot;font-size: 14px&quot;&gt;OS : Redhat Linux 7.9&lt;/span&gt;&lt;/font&gt;&lt;/div&gt;&lt;div style=&quot;font-size: 14px&quot;&gt;&lt;font style=&quot;font-size: 14px&quot;&gt;&lt;span style=&quot;font-size: 14px&quot;&gt;vRAM: 8 Gb ( SGA of 6 Gb per DB)&lt;/span&gt;&lt;/font&gt;&lt;/div&gt;&lt;div style=&quot;font-size: 14px&quot;&gt;&lt;font style=&quot;font-size: 14px&quot;&gt;&lt;span style=&quot;font-size: 14px&quot;&gt;# vCPU&#39;s : 2 &lt;br style=&quot;font-size: 14px&quot;&gt;&lt;/span&gt;&lt;/font&gt;&lt;/div&gt;&lt;div style=&quot;font-size: 14px&quot;&gt;&lt;font style=&quot;font-size: 14px&quot;&gt;&lt;span style=&quot;font-size: 14px&quot;&gt;# vNIC&#39;s : 2&lt;/span&gt;&lt;/font&gt;&lt;/div&gt;&lt;div style=&quot;font-size: 14px&quot;&gt;&lt;font style=&quot;font-size: 14px&quot;&gt;&lt;span style=&quot;font-size: 14px&quot;&gt;swapspace: 18 Gb&lt;/span&gt;&lt;/font&gt;&lt;/div&gt;&lt;div style=&quot;font-size: 14px&quot;&gt;&lt;font style=&quot;font-size: 14px&quot;&gt;&lt;span style=&quot;font-size: 14px&quot;&gt;# vDisks : 2&lt;/span&gt;&lt;/font&gt;&lt;/div&gt;&lt;div style=&quot;font-size: 14px&quot;&gt;&lt;font style=&quot;font-size: 14px&quot;&gt;&lt;span style=&quot;font-size: 14px&quot;&gt;1 vDisk : 170 Gb only linux &amp;amp; software&lt;/span&gt;&lt;/font&gt;&lt;/div&gt;&lt;div style=&quot;font-size: 14px&quot;&gt;&lt;font style=&quot;font-size: 14px&quot;&gt;&lt;span style=&quot;font-size: 14px&quot;&gt;1 vDisk : 200 Gb oradata&lt;br style=&quot;font-size: 14px&quot;&gt;&lt;/span&gt;&lt;/font&gt;&lt;/div&gt;&lt;div style=&quot;font-size: 14px&quot;&gt;&lt;font style=&quot;font-size: 14px&quot;&gt;&lt;span style=&quot;font-size: 14px&quot;&gt;&lt;br style=&quot;font-size: 14px&quot;&gt;&lt;br&gt;&lt;/span&gt;&lt;/font&gt;&lt;/div&gt;" style="text;html=1;resizable=0;autosize=1;align=center;verticalAlign=middle;points=[];rounded=0;fontSize=14;fontStyle=1;labelBorderColor=#000000;spacingTop=0;spacingLeft=4;spacingBottom=4;spacingRight=4;fillColor=#fff2cc;strokeWidth=0;" vertex="1" parent="1">
          <mxGeometry x="600" y="560" width="280" height="250" as="geometry" />
        </mxCell>
      </root>
    </mxGraphModel>
  </diagram>
</mxfile>
